<svg xmlns="http://www.w3.org/2000/svg" xmlns:xlink="http://www.w3.org/1999/xlink" viewBox="12.78 157.06 374.44 85.89">
<rect data-name="background" width="100%" height="100%" fill="none"/><g data-name="icon" fill="#FFFFFF" data="id:8045835" transform="translate(7.181034074740026,140.2513607460827) scale(1.1949705514374072)">
    
 <path d="m6.2031 60.703c-0.84375 0-1.5156 0.65625-1.5156 1.4688s0.67188 1.4688 1.5156 1.4688h87.609c0.82812 0 1.5156-0.65625 1.5156-1.4688s-0.67188-1.4688-1.5156-1.4688h-10.703v-12.234h8.9375c1.1094 0 2.0938-0.5625 2.6406-1.4844 0.54688-0.9375 0.54688-2.0469 0-2.9688l-2.9844-5.0156c0.51562-0.25 0.96875-0.64062 1.2812-1.1562 0.54688-0.9375 0.54688-2.0469 0-2.9688l-3.7812-6.3594c0.21875-0.20312 0.40625-0.42188 0.5625-0.6875 0.54688-0.9375 0.54688-2.0469 0-2.9688l-5.5156-9.3125c-0.5625-0.92188-1.5625-1.4844-2.6562-1.4844-1.1094 0-2.0938 0.5625-2.6406 1.4844l-5.5156 9.3125c-0.54688 0.9375-0.54688 2.0469 0 2.9688 0.15625 0.26562 0.34375 0.48438 0.5625 0.67188l-3.7812 6.3594c-0.54688 0.9375-0.54688 2.0469 0 2.9688 0.3125 0.51562 0.75 0.90625 1.2812 1.1562l-2.9844 5.0156c-0.54688 0.9375-0.54688 2.0469 0 2.9688 0.54688 0.9375 1.5469 1.4844 2.6406 1.4844h8.9375v12.234h-28.531v-12.234h8.9219c1.1094 0 2.0938-0.5625 2.6406-1.4844 0.54688-0.9375 0.54688-2.0469 0-2.9688l-2.9844-5.0156c0.51562-0.25 0.96875-0.64062 1.2812-1.1562 0.54688-0.9375 0.54688-2.0469 0-2.9688l-3.7812-6.3594c0.21875-0.20312 0.40625-0.42188 0.5625-0.6875 0.54688-0.9375 0.54688-2.0469 0-2.9688l-5.5156-9.3125c-0.54688-0.90625-1.5312-1.4688-2.6406-1.4688s-2.0938 0.5625-2.6406 1.4844l-5.5156 9.3125c-0.54688 0.9375-0.54688 2.0469 0 2.9688 0.15625 0.26562 0.34375 0.48438 0.5625 0.67188l-3.7812 6.3594c-0.54688 0.9375-0.54688 2.0469 0 2.9688 0.3125 0.51562 0.75 0.90625 1.2812 1.1562l-2.9844 5.0156c-0.54688 0.9375-0.54688 2.0469 0 2.9688 0.54688 0.9375 1.5469 1.4844 2.6406 1.4844h8.9375v12.234h-28.516v-12.234h8.9375c1.1094 0 2.0938-0.5625 2.6406-1.4844 0.54688-0.9375 0.54688-2.0469 0-2.9688l-2.9844-5.0156c0.51562-0.25 0.96875-0.64062 1.2812-1.1562 0.54688-0.9375 0.54688-2.0469 0-2.9688l-3.7812-6.3594c0.21875-0.20312 0.40625-0.42188 0.5625-0.67188 0.54688-0.9375 0.54688-2.0469 0-2.9688l-5.5156-9.3125c-0.5625-0.92188-1.5625-1.4844-2.6562-1.4844s-2.0938 0.5625-2.6406 1.4844l-5.5156 9.3125c-0.54688 0.9375-0.54688 2.0469 0 2.9688 0.15625 0.26562 0.34375 0.48438 0.5625 0.67188l-3.7812 6.3594c-0.54688 0.9375-0.54688 2.0469 0 2.9688 0.3125 0.51562 0.75 0.90625 1.2812 1.1562l-2.9844 5.0156c-0.54688 0.9375-0.54688 2.0469 0 2.9688 0.54688 0.9375 1.5469 1.4844 2.6406 1.4844h8.9375v12.234h-10.812zm75.422-43.688 5.5 9.3594-11.062-0.046875zm-4.625 12.297h9.1719l4.1562 7.0781-17.5-0.046875zm-5.875 16.188 3.6562-6.1562h13.625l3.6406 6.2031zm-21.047-28.484 5.5 9.3594-11.062-0.046875zm-4.625 12.297h9.1719l4.1562 7.0781-17.5-0.046875zm-5.875 16.188 3.6562-6.1562h13.625l3.6406 6.2031zm-21.031-28.484 5.5 9.3594-11.078-0.046875zm-4.625 12.297h9.1719l4.1562 7.0781-17.5-0.046875zm-5.875 16.188 3.6562-6.1562h13.625l3.6406 6.2031z"/>
 <path d="m93.797 72.703c-1.9531 0-2.8438-0.625-3.9844-1.4219-1.2656-0.89062-2.8281-1.9844-5.75-1.9844s-4.5 1.0938-5.75 1.9844c-1.1406 0.79688-2.0469 1.4219-3.9844 1.4219-1.9531 0-2.8438-0.625-3.9844-1.4219-1.2656-0.89062-2.8281-1.9844-5.75-1.9844s-4.4844 1.0938-5.75 1.9844c-1.1406 0.79688-2.0312 1.4219-3.9844 1.4219s-2.8438-0.625-3.9844-1.4219c-1.2656-0.89062-2.8281-1.9844-5.75-1.9844s-4.4844 1.0938-5.75 1.9844c-1.1406 0.79688-2.0312 1.4219-3.9844 1.4219s-2.8438-0.625-3.9844-1.4219c-1.2656-0.89062-2.8281-1.9844-5.75-1.9844s-4.4844 1.0938-5.75 1.9844c-1.1406 0.79688-2.0312 1.4219-3.9844 1.4219-1.9375 0-2.8438-0.625-3.9844-1.4219-1.2656-0.89062-2.8281-1.9844-5.75-1.9844-0.82812 0-1.5 0.65625-1.5 1.4688s0.67188 1.4688 1.5156 1.4688c1.9375 0 2.8438 0.625 3.9844 1.4219 1.2656 0.89062 2.8281 1.9844 5.75 1.9844s4.4844-1.0938 5.75-1.9844c1.1406-0.79688 2.0312-1.4219 3.9844-1.4219s2.8438 0.625 3.9844 1.4219c1.2656 0.89062 2.8281 1.9844 5.75 1.9844s4.4844-1.0938 5.75-1.9844c1.1406-0.79688 2.0312-1.4219 3.9844-1.4219s2.8438 0.625 3.9844 1.4219c1.2656 0.89062 2.8281 1.9844 5.75 1.9844s4.4844-1.0938 5.75-1.9844c1.1406-0.79688 2.0312-1.4219 3.9844-1.4219s2.8438 0.625 3.9844 1.4219c1.2656 0.89062 2.8281 1.9844 5.75 1.9844s4.4844-1.0938 5.75-1.9844c1.1406-0.79688 2.0469-1.4219 3.9844-1.4219 1.9531 0 2.8438 0.625 3.9844 1.4219 1.2656 0.89062 2.8281 1.9844 5.75 1.9844 0.82812 0 1.5156-0.65625 1.5156-1.4688s-0.6875-1.4688-1.5312-1.4688z"/>
 <path d="m93.797 83c-1.9531 0-2.8438-0.625-3.9844-1.4219-1.2656-0.89062-2.8281-1.9844-5.75-1.9844s-4.5 1.0938-5.75 1.9844c-1.1406 0.79688-2.0469 1.4219-3.9844 1.4219-1.9531 0-2.8438-0.625-3.9844-1.4219-1.2656-0.89062-2.8281-1.9844-5.75-1.9844s-4.4844 1.0938-5.75 1.9844c-1.1406 0.79688-2.0312 1.4219-3.9844 1.4219s-2.8438-0.625-3.9844-1.4219c-1.2656-0.89062-2.8281-1.9844-5.75-1.9844s-4.4844 1.0938-5.75 1.9844c-1.1406 0.79688-2.0312 1.4219-3.9844 1.4219s-2.8438-0.625-3.9844-1.4219c-1.2656-0.89062-2.8281-1.9844-5.75-1.9844s-4.4844 1.0938-5.75 1.9844c-1.1406 0.79688-2.0312 1.4219-3.9844 1.4219-1.9375 0-2.8438-0.625-3.9844-1.4219-1.2656-0.89062-2.8281-1.9844-5.75-1.9844-0.82812 0-1.5 0.65625-1.5 1.4688s0.67188 1.4688 1.5156 1.4688c1.9375 0 2.8438 0.625 3.9844 1.4219 1.25 0.89062 2.8125 1.9844 5.7344 1.9844s4.4844-1.0938 5.75-1.9844c1.1406-0.79688 2.0312-1.4219 3.9844-1.4219s2.8438 0.625 3.9844 1.4219c1.2656 0.89062 2.8281 1.9844 5.75 1.9844s4.4844-1.0938 5.75-1.9844c1.1406-0.79688 2.0312-1.4219 3.9844-1.4219s2.8438 0.625 3.9844 1.4219c1.25 0.89062 2.8281 1.9844 5.7344 1.9844 2.9219 0 4.4844-1.0938 5.75-1.9844 1.1406-0.79688 2.0312-1.4219 3.9844-1.4219s2.8438 0.625 3.9844 1.4219c1.2656 0.89062 2.8281 1.9844 5.75 1.9844s4.4844-1.0938 5.75-1.9844c1.1406-0.79688 2.0469-1.4219 3.9844-1.4219 1.9531 0 2.8438 0.625 3.9844 1.4219 1.2812 0.89062 2.8438 1.9844 5.7656 1.9844 0.82812 0 1.5156-0.65625 1.5156-1.4688s-0.67188-1.4688-1.5156-1.4688z"/>

    </g><g data-name="business_name" fill="#FFFFFF" data="id:174" transform="translate(144.8923110970686,159.82131084554874) scale(1.2532341682281987)"><path d="M10.44,46.92c-4.76,0-8.48-2.84-9.48-6.12l3.8-1.12c0.72,2.12,2.92,3.8,5.8,3.8c2.56,0,4.2-1.28,4.2-2.72c0-1.24-0.8-1.88-2.6-2.4l-5.4-1.6c-2.68-0.8-4.8-2.28-4.8-5.16c0-3.2,3.4-5.84,7.68-5.84c4.36,0,7.52,2.16,8.72,5.08l-3.72,1.08c-0.76-1.52-2.52-2.8-5.04-2.8c-2.12,0-3.52,1.24-3.52,2.44c0,1,0.8,1.56,2.16,2l5.36,1.56c2.84,0.8,5.28,2.08,5.28,5.48c0,3.6-3.48,6.32-8.44,6.32z M34.68,42.32l1.04,3.44c-1.52,0.64-2.84,0.96-4.44,0.96c-4.32,0-6.28-2.72-6.28-6.84l0-9.88l-3.68,0l0-3.72l3.68,0l0-6.72l4.16,0l0,6.72l6.4,0l0,3.72l-6.4,0l0,9.88c0,1.96,0.96,3.08,2.88,3.08c1,0,1.72-0.2,2.64-0.64z M49.28,46.92c-6.16,0-10.68-4.56-10.68-10.6c0-6,4.52-10.56,10.68-10.56s10.68,4.56,10.68,10.56c0,6.04-4.52,10.6-10.68,10.6z M49.28,43.12c3.84,0,6.6-2.92,6.6-6.76c0-3.88-2.76-6.8-6.6-6.8s-6.6,2.92-6.6,6.8c0,3.84,2.76,6.76,6.6,6.76z M88.44,26.28l4.36,0l-6.92,20.12l-4,0l-4.6-14.08l-4.6,14.08l-3.96,0l-6.92-20.12l4.32,0l4.72,14.88l4.68-14.88l3.56,0l4.64,14.84z  M106,46.4l0-29.2l4.2,0l0,29.2l-4.2,0z M125.24,46.92c-6.16,0-10.68-4.56-10.68-10.6c0-6,4.52-10.56,10.68-10.56s10.68,4.56,10.68,10.56c0,6.04-4.52,10.6-10.68,10.6z M125.24,43.12c3.84,0,6.6-2.92,6.6-6.76c0-3.88-2.76-6.8-6.6-6.8s-6.6,2.92-6.6,6.8c0,3.84,2.76,6.76,6.6,6.76z M149.56,46.92c-6.12,0-10.56-4.6-10.56-10.6s4.44-10.56,10.52-10.56c5.4,0,8.8,3.44,9.56,6.36l-3.88,1.12c-0.56-1.84-2.72-3.72-5.64-3.72c-3.92,0-6.48,3.12-6.48,6.8c0,3.64,2.56,6.84,6.48,6.84c2.92,0,5.08-1.76,5.64-3.6l3.88,1.08c-0.76,2.92-4.16,6.28-9.52,6.28z M172.16,46.92c-5.68,0-10-4.52-10-10.6c0-6.04,4.32-10.56,10-10.56c3.24,0,5.72,1.4,7.24,3.56l0-3.04l4.16,0l0,20.12l-4.16,0l0-3.04c-1.52,2.16-4,3.56-7.24,3.56z M172.84,43.16c3.68,0,6.64-2.88,6.64-6.84c0-3.92-2.96-6.8-6.64-6.8c-3.84,0-6.56,2.84-6.56,6.8s2.72,6.84,6.56,6.84z M189.16,46.4l0-29.2l4.2,0l0,29.2l-4.2,0z"/></g></svg>